<svg width="849" height="717" viewBox="0 0 849 717" fill="none" xmlns="http://www.w3.org/2000/svg">
<path fill-rule="evenodd" clip-rule="evenodd" d="M9.78857 399.123C9.78857 424.181 29.8866 444.492 54.6771 444.492C79.3766 444.492 99.4746 424.181 99.4746 399.123C99.4746 374.146 79.3766 353.835 54.6771 353.835C29.8866 353.835 9.78857 374.146 9.78857 399.123V399.123Z" fill="#7F7F7F"/>
<path fill-rule="evenodd" clip-rule="evenodd" d="M558.721 169.446C584.308 159.955 609.719 158.706 635.662 165.033C661.602 171.36 693.386 200.165 713.575 207.741C733.496 214.817 748.371 215.316 754.745 208.906C760.764 202.329 761.475 185.013 749.342 169.446C736.507 153.545 710.563 128.403 681.08 115.833C651.422 103.345 605.56 95.4364 573.861 95.0201C541.899 94.4374 510.377 103.262 491.612 112.503C472.931 121.827 473.636 141.39 462.306 149.715C450.619 157.458 433.883 150.798 423.35 159.622C412.725 168.53 405.819 183.182 399.533 202.329C393.156 221.227 402.012 247.118 385.456 272.343C368.365 297.401 339.947 323.708 298.777 352.263C276.997 325.04 261.589 300.564 252.204 277.837C242.822 255.027 246.624 241.79 242.465 216.565C238.038 190.841 240.252 151.38 226.263 126.738C211.656 102.096 181.374 78.7864 158 70.9609C134.361 63.2186 103.727 67.1314 87.613 80.7844C71.4106 94.4374 61.0517 126.822 62.6454 151.963C64.2391 176.688 77.5197 208.74 97.3521 228.553C117.273 248.034 157.823 255.776 180.754 269.096C202.975 282.166 214.133 288.826 231.661 307.391C249.28 326.205 271.771 363.254 285.757 379.654C299.304 395.472 302.757 401.297 313.912 402.631C324.891 403.63 335.958 396.135 351.895 386.231C367.566 375.825 390.32 360.257 408.205 342.439C425.91 324.457 442.38 303.978 457.963 280.002L500.195 332.616C473.809 352.427 451.411 371.826 432.019 391.723C412.364 411.537 391.469 428.686 384.386 450.833C377.303 472.644 382.175 486.131 390.849 523.094C399.614 560.307 423.431 639.477 436.355 672.028C448.752 703.663 454.507 710.82 466.637 714.733C478.767 718.731 503.201 716.151 508.869 696.087C514.096 675.441 503.911 628.821 499.133 593.19C494.263 557.559 488.238 521.512 480.717 483.717L568.458 421.279C620.255 490.208 661.333 544.154 694.092 586.614C726.583 628.239 743.41 651.463 762.355 672.028C780.857 692.589 791.304 704.995 805.65 709.241C820.17 713.07 844.606 709.824 847.882 695.005C850.715 679.851 845.937 664.288 821.943 619.414C796.975 573.791 745.975 501.197 701.707 425.694C657.354 349.932 610.606 266.016 558.721 169.446V169.446ZM100.884 90.0252C76.0072 107.841 71.5778 162.203 100.621 203.412C129.57 244.62 181.013 257.191 205.892 239.376C230.682 221.56 232.453 171.277 203.501 130.068C174.458 88.7764 125.674 72.2097 100.884 90.0252H100.884ZM193.051 260.688C196.504 260.854 200.754 260.438 204.827 259.106C208.988 257.607 214.123 256.359 218.198 252.779C222.094 249.199 225.545 244.371 228.555 237.96C227.758 243.621 228.555 250.365 230.239 259.106C231.922 267.514 234.843 277.504 239.002 289.076C232.893 283.165 226.164 278.004 218.462 273.258C210.582 268.43 202.439 264.351 193.051 260.688V260.688Z" fill="#7F7F7F"/>
<path fill-rule="evenodd" clip-rule="evenodd" d="M338.877 74.1939C338.877 111.074 368.449 140.96 404.926 140.96C441.404 140.96 470.973 111.074 470.973 74.1939C470.973 37.3141 441.404 7.42737 404.926 7.42737C368.451 7.42737 338.877 37.3141 338.877 74.1939Z" fill="#7F7F7F"/>
<path fill-rule="evenodd" clip-rule="evenodd" d="M544.727 162.369C570.138 152.879 595.634 151.63 621.578 157.957C647.785 164.284 679.127 193.089 699.582 200.664C719.766 207.824 734.286 208.074 740.752 201.747C746.77 195.17 747.476 177.854 735.349 162.369C722.513 146.552 696.569 121.161 667.086 108.673C637.424 96.1025 591.566 88.4435 559.867 87.944C527.991 87.3612 496.12 96.1857 477.527 105.426C458.669 114.75 459.731 134.314 448.312 142.639C436.712 150.215 419.712 143.638 409.267 152.463C398.643 161.121 391.734 176.106 385.451 195.17C379.074 214.151 387.93 239.875 371.371 265.266C354.106 290.574 326.04 316.465 284.781 345.189C262.824 317.966 247.859 293.491 238.208 270.761C228.914 247.784 232.367 234.714 228.38 209.406C223.956 183.931 226.169 144.054 212.178 119.662C197.572 95.1035 167.289 71.5437 143.916 63.8015C120.279 56.2257 89.6446 59.9719 73.5307 73.7082C57.2374 87.3612 47.2351 119.829 48.6492 144.804C50.3339 169.446 63.3489 201.747 83.2674 221.477C103.191 240.957 143.738 248.7 166.67 262.02C188.895 275.09 200.048 281.75 217.579 300.315C235.198 319.129 257.598 356.175 271.764 372.576C285.31 388.393 288.763 394.218 299.919 395.553C311.074 396.552 321.787 389.057 337.81 379.152C353.484 368.746 376.238 353.178 394.12 335.363C411.916 317.381 428.21 296.901 443.964 272.925L486.202 325.456C459.815 345.353 437.417 364.748 417.934 384.649C398.016 404.458 377.475 421.608 370.303 443.754C363.218 465.566 368.09 479.052 376.764 516.015C385.53 553.228 409.346 632.399 422.275 664.869C434.845 696.67 440.514 703.414 452.643 707.574C464.773 711.489 489.207 709.155 494.876 689.011C500.097 668.534 489.918 621.579 485.134 586.033C480.267 550.148 474.244 514.517 466.723 476.555L554.464 414.203C606.256 482.968 647.34 537.33 680.099 579.538C712.503 621.329 729.326 644.225 748.27 664.869C766.777 685.429 777.133 697.836 791.656 702.082C806.176 705.825 830.612 702.831 833.888 687.927C836.458 672.778 832.115 657.21 807.858 612.336C782.891 566.8 731.891 493.957 687.622 418.527C643.093 342.858 596.701 258.856 544.727 162.372V162.369ZM86.8163 82.949C62.0258 100.764 57.5989 155.043 86.5507 196.335C115.593 237.544 167.034 250.115 191.824 232.299C216.615 214.484 218.474 164.201 189.431 122.909C160.479 81.7002 111.607 65.1335 86.8163 82.949H86.8163ZM178.984 253.611C182.437 253.611 186.689 253.362 190.762 251.946C194.921 250.448 200.056 249.116 204.131 245.703C208.115 242.123 211.48 237.294 214.578 230.884C213.87 236.379 214.401 243.288 216.172 251.946C217.854 260.688 220.687 270.178 225.026 282C218.917 276.089 212.185 270.927 204.485 266.182C196.694 261.354 188.192 257.274 178.984 253.611H178.984Z" fill="#009688"/>
<path fill-rule="evenodd" clip-rule="evenodd" d="M324.785 67.1176C324.785 103.997 354.354 133.884 390.923 133.884C427.403 133.884 456.972 103.997 456.972 67.1176C456.972 30.1546 427.403 0.267822 390.923 0.267822C354.354 0.267822 324.785 30.1546 324.785 67.1176Z" fill="#009688"/>
<path fill-rule="evenodd" clip-rule="evenodd" d="M0.393799 391.7C0.393799 416.758 20.4918 437.074 45.2823 437.074C69.9843 437.074 90.0823 416.758 90.0823 391.7C90.0823 366.642 69.9843 346.331 45.2823 346.331C20.4918 346.331 0.393799 366.644 0.393799 391.7Z" fill="#009688"/>
</svg>
