<?xml version="1.0"?>
<svg xmlns="http://www.w3.org/2000/svg" height="512px" viewBox="-21 -86 682.66669 682" width="512px"><g><path d="m565-4h-490c-41.359375 0-75 33.644531-75 75v360c0 41.359375 33.640625 75 75 75h490c41.359375 0 75-33.640625 75-75v-360c0-41.355469-33.640625-75-75-75zm25 75v25h-245v-50h220c13.785156 0 25 11.214844 25 25zm-145 155h-100v-80h100zm-150 0h-100v-80h100zm-150 130h-95v-210h95zm50-80h100v80h-100zm150 0h100v80h-100zm150-130h95v210h-95zm-420-100h220v50h-245v-25c0-13.785156 11.214844-25 25-25zm-25 385v-25h245v50h-220c-13.785156 0-25-11.214844-25-25zm515 25h-220v-50h245v25c0 13.785156-11.214844 25-25 25zm0 0" data-original="#000000" class="active-path" data-old_color="#000000" fill="#009688"/></g> </svg>
